{"title":"The.Strain.S02E04.HDTV.480p.x264.AAC-VYTO [P2PDL]","uid":12187454,"size":179363376,"categoryP":"video","categoryS":"hd___tv_shows","magnet":"?xt=urn:btih:a507c03dfc05bbec1e8855b89dbee1a33533ad62&amp;dn=The.Strain.S02E04.HDTV.480p.x264.AAC-VYTO+%5BP2PDL%5D&amp;tr=udp%3A%2F%2Ftracker.openbittorrent.com%3A80&amp;tr=udp%3A%2F%2Fopen.demonii.com%3A1337&amp;tr=udp%3A%2F%2Ftracker.coppersurfer.tk%3A6969&amp;tr=udp%3A%2F%2Fexodus.desync.com%3A6969","seeders":8,"leechers":1,"uploader":"ValidusVyto","files":6,"time":1438595256,"description":"____    ____ ____    ____ .___________.  ______   \n     /   /      /   / |           | /  __    \n    /   /      /   /  `---|  |----`|  |  |  | \n        /     _    _/       |  |     |  |  |  | \n       /        |  |         |  |     |  `--'  | \n    __/         |__|         |__|      ______/  \n                                                  \nPresenting Small Encodes with quality for years!\n                                                                                                   \n                                                                                                   \n\nThe.Strain.S02E04.HDTV.480p.x264.AAC-VYTO\n\n\nGeneral\nFormat                         : MPEG-4\nFile size                      : 166 MiB\nDuration                       : 48mn 57s\nOverall bit rate               : 473 Kbps\n\nVideo\nFormat                         : AVC\nBit rate                       : 439 Kbps\nWidth                          : 720 pixels\nHeight                         : 400 pixels\nDisplay aspect ratio           : 16:9\nFrame rate mode                : Constant\nFrame rate                     : 23.976 fps\nBit depth                      : 8 bits\nStream size                    : 154 MiB (93%)\nWriting library                : x264 core 146 r2538 121396c\n\nAudio\nFormat                         : AAC\nBit rate                       : 32.0 Kbps\nChannel(s)                     : 2 channels \nChannel positions              : Front: L R \nSampling rate                  : 48.0 KHz\nStream size                    : 10.7 MiB (6%)\n\n\n\n\nScreenshots:\n &lt;a href=&quot;\nhttp://ititli.com/gi&quot; rel=&quot;nofollow&quot; target=&quot;_NEW&quot;&gt;\nhttp://ititli.com/gi&lt;/a&gt; &lt;a href=&quot;\nhttp://ititli.com/gp&quot; rel=&quot;nofollow&quot; target=&quot;_NEW&quot;&gt;\nhttp://ititli.com/gp&lt;/a&gt; &lt;a href=&quot;\nhttp://ititli.com/gD&quot; rel=&quot;nofollow&quot; target=&quot;_NEW&quot;&gt;\nhttp://ititli.com/gD&lt;/a&gt; &lt;a href=&quot;\nhttp://ititli.com/ga&quot; rel=&quot;nofollow&quot; target=&quot;_NEW&quot;&gt;\nhttp://ititli.com/ga&lt;/a&gt; &lt;a href=&quot;\nhttp://ititli.com/gb&quot; rel=&quot;nofollow&quot; target=&quot;_NEW&quot;&gt;\nhttp://ititli.com/gb&lt;/a&gt; &lt;a href=&quot;\nhttp://ititli.com/gz&quot; rel=&quot;nofollow&quot; target=&quot;_NEW&quot;&gt;\nhttp://ititli.com/gz&lt;/a&gt; &lt;a href=&quot;\nhttp://ititli.com/gI&quot; rel=&quot;nofollow&quot; target=&quot;_NEW&quot;&gt;\nhttp://ititli.com/gI&lt;/a&gt; &lt;a href=&quot;\nhttp://ititli.com/gO&quot; rel=&quot;nofollow&quot; target=&quot;_NEW&quot;&gt;\nhttp://ititli.com/gO&lt;/a&gt; &lt;a href=&quot;\nhttp://ititli.com/n9&quot; rel=&quot;nofollow&quot; target=&quot;_NEW&quot;&gt;\nhttp://ititli.com/n9&lt;/a&gt; &lt;a href=&quot;\nhttp://ititli.com/nX&quot; rel=&quot;nofollow&quot; target=&quot;_NEW&quot;&gt;\nhttp://ititli.com/nX&lt;/a&gt; &lt;a href=&quot;\nhttp://ititli.com/nq&quot; rel=&quot;nofollow&quot; target=&quot;_NEW&quot;&gt;\nhttp://ititli.com/nq&lt;/a&gt; &lt;a href=&quot;\nhttp://ititli.com/nr&quot; rel=&quot;nofollow&quot; target=&quot;_NEW&quot;&gt;\nhttp://ititli.com/nr&lt;/a&gt;\n\n----------------------------------------------------------------------------------------------------\n\n\nEncoder Notes: Looking For Early Access To Anything You Can Provide DVDScr, R5, DVDR, BluRay, Direct\nAudio, Music Releases and Seedboxes. If You Got anything to offer please contact us.\n\nSupport us by donating BC - 1FgwdzPsd1y25Gea8wP1qni35uGCtmkRCD","torrent":{"xt":"urn:btih:a507c03dfc05bbec1e8855b89dbee1a33533ad62","amp;dn":"The.Strain.S02E04.HDTV.480p.x264.AAC-VYTO+%5BP2PDL%5D","amp;tr":["udp%3A%2F%2Ftracker.openbittorrent.com%3A80","udp%3A%2F%2Fopen.demonii.com%3A1337","udp%3A%2F%2Ftracker.coppersurfer.tk%3A6969","udp%3A%2F%2Fexodus.desync.com%3A6969"],"infoHash":"a507c03dfc05bbec1e8855b89dbee1a33533ad62","infoHashBuffer":{"type":"Buffer","data":[165,7,192,61,252,5,187,236,30,136,85,184,157,190,225,163,53,51,173,98]},"announce":[],"urlList":[]}}